<?xml version="1.0" encoding="iso-8859-1"?>
<!-- Generator: Adobe Illustrator 19.0.0, SVG Export Plug-In . SVG Version: 6.00 Build 0)  -->
<svg xmlns="http://www.w3.org/2000/svg" xmlns:xlink="http://www.w3.org/1999/xlink" version="1.1" id="Layer_1" x="0px" y="0px" viewBox="0 0 612 612" style="enable-background:new 0 0 512 512; padding:10px;" xml:space="preserve" width="120px" height="120px">
<g>
	<g>
		<path d="M256,193c-34.738,0-63,28.262-63,63c0,34.738,28.262,63,63,63c34.738,0,63-28.262,63-63C319,221.262,290.738,193,256,193z     M256,289c-18.196,0-33-14.804-33-33c0-18.196,14.804-33,33-33s33,14.804,33,33S274.196,289,256,289z" fill="#3ea042"/>
	</g>
</g>
<g>
	<g>
		<path d="M437.019,74.98C388.667,26.629,324.38,0,256,0S123.333,26.629,74.981,74.98C26.629,123.332,0,187.619,0,256    s26.629,132.668,74.981,181.02C123.333,485.371,187.62,512,256,512s132.667-26.629,181.019-74.98    C485.371,388.668,512,324.381,512,256S485.371,123.332,437.019,74.98z M256,30c23.118,0,45.702,3.46,67.174,10.112l-45.383,90.766    C270.708,129.647,263.429,129,256,129c-7.486,0-14.822,0.656-21.956,1.905l-45.571-90.681C210.05,33.5,232.755,30,256,30z     M256,482c-23.245,0-45.95-3.5-67.527-10.224l45.571-90.681C241.178,382.344,248.514,383,256,383    c7.486,0,14.822-0.656,21.956-1.905l45.571,90.681C301.95,478.5,279.245,482,256,482z M256,353c-53.486,0-97-43.514-97-97    c0-53.486,43.514-97,97-97c53.486,0,97,43.514,97,97C353,309.486,309.486,353,256,353z" fill="#3ea042"/>
	</g>
</g>
<g>
</g>
<g>
</g>
<g>
</g>
<g>
</g>
<g>
</g>
<g>
</g>
<g>
</g>
<g>
</g>
<g>
</g>
<g>
</g>
<g>
</g>
<g>
</g>
<g>
</g>
<g>
</g>
<g>
</g>
</svg>
