<?xml version="1.0" encoding="iso-8859-1"?>
<!-- Generator: Adobe Illustrator 18.0.0, SVG Export Plug-In . SVG Version: 6.00 Build 0)  -->
<!DOCTYPE svg PUBLIC "-//W3C//DTD SVG 1.1//EN" "http://www.w3.org/Graphics/SVG/1.1/DTD/svg11.dtd">
<svg version="1.1" id="Capa_1" xmlns="http://www.w3.org/2000/svg" xmlns:xlink="http://www.w3.org/1999/xlink" x="0px" y="0px"
	 viewBox="0 0 494.018 494.018" style="enable-background:new 0 0 494.018 494.018;" xml:space="preserve" fill='#44a048' width="120px" height="120px">
<g id="XMLID_121_">
	<path id="XMLID_122_" d="M246.722,95.261c54.193-15.985,95.11-39.285,87.724-64.28C327.073,5.977,231.551-9.473,177.341,6.519
		c-54.227,15.993-46.586,57.371-39.213,82.366C145.499,113.897,192.498,111.269,246.722,95.261z"/>
	<path id="XMLID_123_" d="M139.465,170.032c-7.785,31.308,78.012,42.023,155.067,61.223c77.072,19.208,142.777,21.836,150.578-9.474
		c7.785-31.299,14.328-83.049-62.744-102.249C305.311,100.331,147.266,138.732,139.465,170.032z"/>
	<path id="XMLID_124_" d="M186.622,240.768c-15.872,0-29.039,2.173-40.119,5.851c16.127,9.894,25.33,30.297,26.746,49.043
		c22.019-15.665,52.554-12.172,66.979,12.697c14.535,25.241,0.859,53.812-23.436,70.568c12.037,5.341,21.175,15.284,25.648,26.58
		c3.12,0.039,6.226,0.111,9.393,0.111c88.95,0,226.265-16.955,226.265-57.974C478.097,306.624,275.572,240.768,186.622,240.768z"/>
	<path id="XMLID_125_" d="M123.624,363.643c27.75-15.69,37.764-52.267,32.145-74.978c-4.267-17.234-14.376-32.152-32.145-32.152
		c-17.767,0-28.594,14.177-28.594,31.929c0,6.218,3.36,12.809,7.723,20.259C112.257,325.004,122.684,342.182,123.624,363.643z"/>
	<path id="XMLID_126_" d="M122.192,386.88c-17.45,9.847-27.894,27.933-31.842,45.716c-2.325,10.436-2.42,20.768-0.318,29.262
		c4.25,17.242,14.393,32.161,32.16,32.161c17.734,0,28.594-14.177,28.594-31.937c0-6.21-3.36-12.785-7.706-20.227
		C133.559,425.543,123.132,408.42,122.192,386.88z"/>
	<path id="XMLID_127_" d="M45.04,358.979c16.303,1.616,42.891-3.136,68.156,9.855c0.017-1.681-0.096-6.281-0.604-6.504
		c-3.057-28.872-27.113-52.72-48.239-58.833c-16.955-4.937-35.218-3.264-43.941,11.772C9.027,335.019,24.311,356.861,45.04,358.979z
		"/>
	<path id="XMLID_128_" d="M190.046,391.066c-0.016,0.008-0.032,0.008-0.049,0.016c-15.969,0.112-36.267,1.552-57.394-9.394
		c-0.255,35.742,37.313,75.986,73.268,67.146c5.934-1.459,15.442-6.559,19.503-13.58
		C235.785,417.185,225.612,391.066,190.046,391.066z"/>
	<path id="XMLID_129_" d="M112.496,380.448c-12.927-7.594-29.692-10.595-48.988-6.304c-11.366,2.546-23.784,8.039-32.016,15.944
		c-22.082,21.166-18.675,43.551-2.277,53.796c10.285,6.368,22.352,4.744,32.431-1.091C77.04,433.924,81.243,400.443,112.496,380.448
		z"/>
	<path id="XMLID_130_" d="M178.885,377.184c12.066-2.15,26.651-8.295,35.455-16.758c15.538-14.948,21.955-34.373,7.45-49.599
		c-8.74-9.156-23.657-11.169-37.651-3.114c-15.363,8.885-19.583,42.382-50.804,62.361
		C145.165,377.057,161.387,380.288,178.885,377.184z"/>
</g>
<g>
</g>
<g>
</g>
<g>
</g>
<g>
</g>
<g>
</g>
<g>
</g>
<g>
</g>
<g>
</g>
<g>
</g>
<g>
</g>
<g>
</g>
<g>
</g>
<g>
</g>
<g>
</g>
<g>
</g>
</svg>
