<svg xmlns="http://www.w3.org/2000/svg" width="16" height="15" viewBox="0 0 16 15">
    <g fill="#6C6C6C" fill-rule="nonzero">
        <path d="M14.54.012H1.44C.644.012 0 .64 0 1.415v4.529c0 .775.645 1.403 1.44 1.403h13.1c.795 0 1.44-.628 1.44-1.403V1.415c0-.775-.645-1.403-1.44-1.403zM1.284 1.94c0-.367.304-.664.68-.664.376 0 .681.297.681.664a.672.672 0 0 1-.68.663.672.672 0 0 1-.681-.663zm12.051 3.183H2.645a.526.526 0 0 1-.533-.52c0-.286.239-.519.533-.519h10.69c.294 0 .533.233.533.52 0 .286-.239.519-.533.519zM4.581 9.734c-1.217.418-.93 2.225-.87 2.806.077.75.518 1.778.072 2.46 1.201-.463.924-2.342.885-2.691-.042-.342-.5-2.031-.087-2.575zM12.368 9.734c-1.217.418-.929 2.225-.87 2.806.077.75.518 1.778.072 2.46 1.201-.463.925-2.342.885-2.691-.042-.342-.5-2.031-.087-2.575zM8.458 7.755c-1.217.417-.93 2.224-.87 2.806.077.75.517 1.778.072 2.459 1.2-.462.924-2.342.885-2.69-.042-.343-.5-2.032-.087-2.575z"/>
    </g>
</svg>
