<svg xmlns="http://www.w3.org/2000/svg" width="12" height="16" viewBox="0 0 12 16">
    <g fill="#6C6C6C" fill-rule="nonzero">
        <path d="M5.647 9.725c-1.038 0-1.882.66-1.882 1.472v3.332c0 .811.844 1.471 1.882 1.471 1.038 0 1.882-.66 1.882-1.471v-3.332c0-.811-.844-1.472-1.882-1.472z"/>
        <path d="M10.708 0H8.683a.583.583 0 0 0-.586.58c0 .325-.93.922-2.45.922S3.197.905 3.197.58c0-.32-.262-.58-.586-.58H.586A.583.583 0 0 0 0 .58v.88c0 .32.263.58.587.58.323 0 .586-.26.586-.58v-.3h.982c.368.784 1.473 1.354 2.905 1.478v1.497H3.623a.578.578 0 1 0-.262 1.1l1.7.84v1.513c-1.586.17-2.825 1.502-2.825 3.115v2.194h-.637a.584.584 0 0 0-.587.58c0 .32.263.58.587.58h.637v.421c0 .321.262.58.586.58.324 0 .587-.259.587-.58v-3.775c0-1.088.894-1.973 1.994-1.973h.488c1.1 0 1.994.885 1.994 1.973v3.775c0 .321.263.58.587.58.324 0 .586-.259.586-.58v-2.423h.637c.324 0 .587-.26.587-.58 0-.321-.263-.581-.587-.581h-.637v-.19c0-1.614-1.239-2.946-2.824-3.116V6.075l1.7-.841a.578.578 0 0 0-.263-1.1H6.233V2.639c1.433-.124 2.538-.694 2.905-1.477h.983v.3c0 .32.263.58.587.58.323 0 .586-.26.586-.58V.58c0-.321-.263-.581-.586-.581z"/>
    </g>
</svg>
