<svg xmlns="http://www.w3.org/2000/svg" width="30" height="30" viewBox="0 0 14 18">
    <path fill="#6C6C6C" fill-rule="nonzero" d="M3.72 1.072A1.08 1.08 0 0 1 4.806 0c.5 0 .916.334 1.043.787.015 0 .029-.004.044-.004.451 0 .817.36.817.806a.793.793 0 0 1-.061.306c.28 0 .507.224.507.5s-.227.5-.507.5a.503.503 0 0 1-.507-.5c0-.015.003-.029.005-.043a.82.82 0 0 1-.254.043.818.818 0 0 1-.662-.336c-.13.055-.274.086-.425.086-.601 0-1.088-.48-1.088-1.073zm.493 5.313h-1.49a.47.47 0 0 0-.473.466v3.124l4.632-2.188 4.633 2.188V6.85a.47.47 0 0 0-.474-.466H4.212zm5.339-.467v-.286a.47.47 0 0 0-.473-.466h-1.15l-.205-1.857H6.04l-.205 1.857h-1.15a.47.47 0 0 0-.472.466v.286h5.339zm-2.67 2.386L0 11.555l2.038 5.863c.946-.434 2.162-.838 3.408-.838 2.003 0 3.613.94 5.727 1.42h.351l2.24-6.445-6.882-3.25z"/>
</svg>
