<svg xmlns="http://www.w3.org/2000/svg" width="14" height="16" viewBox="0 0 14 16">
    <path fill="#6C6C6C" fill-rule="nonzero" d="M2.099 12.773h11.226a.44.44 0 0 0 .1-.012h.007c.24 0 .435-.189.435-.422V.422A.428.428 0 0 0 13.432 0H2.1C.943 0 .003.913.003 2.035c0 .015.003.03.004.044-.001 1.037-.014 10.56-.001 11.813-.001.024-.004.048-.004.073 0 1.079.87 1.962 1.965 2.029a.443.443 0 0 0 .066.006h11.4c.239 0 .434-.189.434-.422v-1.587a.428.428 0 0 0-.435-.422.428.428 0 0 0-.434.422v1.166h-10.9c-.66 0-1.198-.51-1.225-1.143.001-.012.003-.022.003-.034l-.002-.086c.038-.624.572-1.121 1.225-1.121zm.296-10.738c0-.233.194-.421.434-.421s.435.188.435.421V10.6a.428.428 0 0 1-.435.422.428.428 0 0 1-.434-.422V2.035z"/>
</svg>
