<svg xmlns="http://www.w3.org/2000/svg" width="13" height="16" viewBox="0 0 13 16">
    <g fill="#6C6C6C" fill-rule="nonzero">
        <path d="M.768 0C.416 0 0 .147 0 .475v12.82c0 .328.416.705.768.705h5.099V0h-5.1zm4.4 7.973a.445.445 0 0 1-.446-.443c0-.244.2-.443.446-.443s.446.199.446.443-.2.443-.446.443zM11.76 0H6.4v14h5.36c.35 0 .507-.377.507-.705V.475c0-.328-.156-.475-.508-.475zm-4.4 7.973a.445.445 0 0 1-.447-.443c0-.244.2-.443.446-.443s.447.199.447.443-.2.443-.447.443zM.533 14.933v.711c0 .356 0 .356.258.356h10.74c.202 0 .202 0 .202-.356v-.71H.533z"/>
    </g>
</svg>
