<svg xmlns="http://www.w3.org/2000/svg" width="16" height="16" viewBox="0 0 16 16">
    <path fill="#6C6C6C" fill-rule="nonzero" d="M14.547 6.518h-.228v-.23C14.32 2.82 11.484 0 8 0 4.515 0 1.68 2.82 1.68 6.287v.23h-.227A1.45 1.45 0 0 0 0 7.964v2.115a1.45 1.45 0 0 0 1.453 1.445h.81a.374.374 0 0 0 .343-.225c.96 1.9 2.355 3.155 2.447 3.237.05.044.113.066.177.066a.264.264 0 0 0 .247-.36 5.88 5.88 0 0 1-.034-.127 5.943 5.943 0 0 0 1.884 1.573 2.784 2.784 0 0 0 2.561 0 5.92 5.92 0 0 0 1.796-1.466 3.686 3.686 0 0 0 2.35-2.698h.513A1.45 1.45 0 0 0 16 10.078V7.963a1.45 1.45 0 0 0-1.453-1.445zM2.885 4.092a5.58 5.58 0 0 1 10.456.621c-.298-.285-.624-.448-.91-.507a3.166 3.166 0 0 0-.57-1.008c-.125-.167-1.29-1.635-3.678-1.635-.819 0-1.693.177-2.599.525-.646.248-1.813.829-2.699 2.004zM9.643 15.22a2.25 2.25 0 0 1-2.07 0c-.651-.34-1.581-1.018-2.316-2.33l-.042-.078c-.098-1.005-.028-2.277.773-2.946.621-.519 1.666-.76 2.676-.994 1.265-.292 2.566-.593 3.283-1.445.225.21.415.477.49.81a4.299 4.299 0 0 1-.078 2.127.263.263 0 0 0 .25.35.265.265 0 0 0 .143-.042c-.166.772-.417 1.547-.793 2.219-.113.2-.23.384-.35.557-.362.159-.762.248-1.183.248h-.387A1.074 1.074 0 0 0 9.034 13H8.012c-.592 0-1.074.479-1.074 1.068 0 .589.482 1.068 1.074 1.068h1.022c.46 0 .853-.29 1.005-.696h.387c.114 0 .227-.005.338-.016a5.19 5.19 0 0 1-1.121.796zm3.025-2.561c.337-.739.556-1.548.695-2.329v.444a2.9 2.9 0 0 1-.695 1.885z"/>
</svg>
