<svg xmlns="http://www.w3.org/2000/svg" width="15" height="16" viewBox="0 0 15 16">
    <path fill="#6C6C6C" fill-rule="nonzero" d="M7.381 3.825a6.739 6.739 0 0 1-.224-.358 4.264 4.264 0 0 0 1.77.156 4.963 4.963 0 0 0 1.52-.436 4.83 4.83 0 0 0 1.298-.894c.39-.386.748-.838.999-1.504a4.225 4.225 0 0 0-1.817-.171 4.849 4.849 0 0 0-1.519.439c-.47.222-.9.517-1.296.896-.38.38-.73.822-.984 1.463A10.275 10.275 0 0 1 5.934 0l-.788.123A10.97 10.97 0 0 0 6.4 3.747C3.252 3.277-.22 4.548.01 8.095c0 3.24 2.18 7.617 5.93 7.892.12.01 1.674-.233 1.97.013 3.922 0 6.3-4.558 6.3-7.905.242-3.714-3.578-4.933-6.83-4.27zm3.342 4.745c-.276 1.659-3.598 4.5-3.598 4.5s-3.35-2.841-3.626-4.5c-.275-1.66.81-2.017 1.633-2.104.672-.07 1.784.336 1.978 1.398.193-1.062 1.308-1.468 1.98-1.398.823.087 1.908.445 1.633 2.104z"/>
</svg>
