<svg xmlns="http://www.w3.org/2000/svg" width="16" height="15" viewBox="0 0 16 15">
    <g fill="#6C6C6C" fill-rule="nonzero">
        <path d="M2.367 13.934a.54.54 0 0 0 .542.536h1.376c.3 0 .543-.24.543-.536v-1.2H2.367v1.2zM1.276 11.591a.705.705 0 0 0 .703.694h3.236c.19 0 .36-.074.487-.194a.688.688 0 0 0 .216-.5l.902-7.694L.94 8.731l.336 2.86zM6.491.01H.703A.699.699 0 0 0 0 .704l.815 6.951 6.158-5.063.221-1.888A.699.699 0 0 0 6.491.01zM13.546 6.211a.681.681 0 0 0-.685-.676h-1.69a.681.681 0 0 0-.685.676V7.74h3.06V6.211zM14.463 8.21a1.817 1.817 0 0 0-.244-.017H9.814a1.766 1.766 0 0 0-1.781 1.759v3.213a1.77 1.77 0 0 0 1.78 1.758h4.406A1.77 1.77 0 0 0 16 13.165V9.952c0-.89-.669-1.624-1.537-1.742zm-2.447 4.737a1.397 1.397 0 0 1-1.406-1.389c0-.767.63-1.388 1.406-1.388.777 0 1.406.621 1.406 1.388 0 .767-.63 1.389-1.406 1.389z"/>
    </g>
</svg>
