<svg xmlns="http://www.w3.org/2000/svg" width="16" height="16" viewBox="0 0 16 16">
    <g fill="#6C6C6C" fill-rule="nonzero">
        <path d="M15.463 7.667l-.322-.316a.69.69 0 0 0-.963 0l-1.341 1.313H8.185a.54.54 0 0 0-.546.534v2.316H.681A.675.675 0 0 0 0 12.18v.447c0 .368.305.667.681.667H2.47l-1.36 1.541a.527.527 0 0 0 .056.754.55.55 0 0 0 .77-.055l1.348-1.528h6.313l1.422 1.393a.555.555 0 0 0 .772 0 .527.527 0 0 0 0-.756l-1.378-1.35h1.64a.675.675 0 0 0 .68-.666v-.447a.663.663 0 0 0-.333-.57l3.064-3a.657.657 0 0 0 0-.944zM8.731 9.733h3.014l-1.78 1.781H8.73V9.733zM4.5 2.274A2.228 2.228 0 0 0 2.274 4.5c0 1.227.999 2.226 2.226 2.226A2.228 2.228 0 0 0 6.726 4.5 2.228 2.228 0 0 0 4.5 2.274zM4.5 1.68c.19 0 .344-.154.344-.344V.344a.344.344 0 0 0-.688 0v.992c0 .19.154.344.344.344zM6.737 2.606a.342.342 0 0 0 .243-.1l.702-.702a.344.344 0 0 0-.486-.486l-.702.702a.344.344 0 0 0 .243.586zM8.656 4.156h-.992a.344.344 0 0 0 0 .688h.992a.344.344 0 0 0 0-.688zM6.98 6.494a.344.344 0 0 0-.486.486l.702.702a.342.342 0 0 0 .486 0 .344.344 0 0 0 0-.486l-.702-.702zM4.5 7.32a.344.344 0 0 0-.344.344v.992a.344.344 0 0 0 .688 0v-.992A.344.344 0 0 0 4.5 7.32zM2.02 6.494l-.702.702a.344.344 0 0 0 .486.486l.702-.702a.344.344 0 0 0-.486-.486zM1.68 4.5a.344.344 0 0 0-.344-.344H.344a.344.344 0 0 0 0 .688h.992c.19 0 .344-.154.344-.344zM2.02 2.506a.342.342 0 0 0 .486 0 .344.344 0 0 0 0-.486l-.702-.702a.344.344 0 0 0-.486.486l.702.702z"/>
    </g>
</svg>
