<svg xmlns="http://www.w3.org/2000/svg" width="16" height="14" viewBox="0 0 16 14">
    <g fill="#6C6C6C" fill-rule="nonzero">
        <path d="M7.964 4.783c-.112-.344-.454-.522-.764-.397l-1.94.78L3.67 3.858l1.596.695.002-.123c.024-.536-.341-.996-.825-1.034l-1.509-.12a.838.838 0 0 0-.671.266c-.181.188-.283.452-.281.728l.033 4.82h-.422L.95 3.465c-.033-.29-.271-.497-.533-.46-.261.037-.446.302-.413.593l.694 6.09c.03.266.233.464.473.464h1.723v2.172L1.761 13.35a.394.394 0 0 0-.047.514c.115.157.322.18.463.053l.717-.651v.367c0 .202.147.366.33.366.18 0 .328-.164.328-.366v-.367l.717.65c.141.128.348.105.463-.052a.394.394 0 0 0-.046-.514l-1.134-1.028V10.15h1.571c.239 0 .436-.194.471-.448l.115.033.41 3.57c.05.435.409.743.8.687.393-.055.67-.454.62-.89L7.067 9c-.037-.323-.247-.588-.53-.67l-1.491-.427.036-.57A.772.772 0 0 1 4.44 7l-1.48-2.075 1.85 1.52c.157.13.366.167.557.09l2.24-.902c.31-.124.47-.504.358-.849z"/>
        <ellipse cx="4.5" cy="1.5" rx="1.5" ry="1.5"/>
        <path d="M15.485 7h-6.97C8.231 7 8 7.245 8 7.546c0 .302.23.547.515.547h.069v5.543c0 .2.153.364.343.364.19 0 .343-.163.343-.364V8.093h5.494v5.543c0 .2.154.364.343.364.19 0 .344-.163.344-.364V8.093c.356 0 .549-.273.549-.547 0-.301-.23-.546-.515-.546zM11.816 4.046a.344.344 0 0 0-.48.148L10.27 6.252H8.353A.364.364 0 0 0 8 6.626v.017A.363.363 0 0 0 8.355 7h2.126c.129 0 .248-.074.31-.194l1.166-2.252a.385.385 0 0 0-.14-.508z"/>
    </g>
</svg>
