<svg xmlns="http://www.w3.org/2000/svg" width="16" height="16" viewBox="0 0 16 16">
    <g fill="#6C6C6C" fill-rule="nonzero">
        <path d="M0 15.107L15.107 0 16 .893.893 16zM2.676 8.333a5.664 5.664 0 0 1 5.657-5.657c.873 0 1.7.199 2.438.553L13 1H3.263A2.265 2.265 0 0 0 1 3.263V13l2.229-2.229a5.623 5.623 0 0 1-.553-2.438zM13.324 7.667a5.664 5.664 0 0 1-5.657 5.657c-.873 0-1.7-.199-2.438-.553L3 15h9.737A2.265 2.265 0 0 0 15 12.737V3l-2.229 2.229c.354.738.553 1.565.553 2.438z"/>
    </g>
</svg>
