<svg xmlns="http://www.w3.org/2000/svg" width="16" height="16" viewBox="0 0 16 16">
    <path fill="#6C6C6C" fill-rule="nonzero" d="M14.32 14.266a7.488 7.488 0 0 0-.484-.337l1.401-3.645a2.787 2.787 0 0 0-.126-2.28 2.736 2.736 0 0 0-1.475-1.308V2.759H9.455V0h-2.91v2.759H2.364v3.937A2.736 2.736 0 0 0 .889 8.003a2.787 2.787 0 0 0-.126 2.281l1.401 3.646a7.506 7.506 0 0 0-.485.336c-.478.352-.856.63-1.679.63V16c1.177 0 1.785-.447 2.32-.841.48-.352.857-.63 1.68-.63s1.2.278 1.68.63C6.214 15.553 6.822 16 8 16c1.178 0 1.785-.447 2.321-.841.479-.352.857-.63 1.68-.63.822 0 1.2.278 1.678.63.536.394 1.144.841 2.321.841v-1.103c-.823 0-1.2-.279-1.68-.63zm-1.775-7.853L8 5.318 3.455 6.413v-2.55h9.09v2.55z"/>
</svg>
