<svg xmlns="http://www.w3.org/2000/svg" width="13" height="16" viewBox="0 0 13 16">
    <g fill="#6C6C6C" fill-rule="nonzero">
        <path d="M10.775 9.257c-1.835-.602-2.598-1.35-2.598-1.35l-.061.059c-.545.515-1.148.818-1.697.818h-.052c-.549 0-1.151-.303-1.696-.818l-.062-.059s-.763.748-2.598 1.35C-.698 10.273.116 14.41.115 14.441c.085.46.135.619.178.636 2.72 1.216 9.48 1.216 12.2 0 .044-.017.094-.176.179-.636 0-.032.823-4.151-1.897-5.184z"/>
        <path d="M9.238 3.982l-.022-.025c-.153-.14-.14-.132-.14-.132s.265-1.347.052-1.984C8.793.824 6.794.14 6.393.063c0-.001-.244-.05-.26-.05 0 0-.315-.064-.68.096C5.214.2 3.97.767 3.617 1.84c-.214.637.052 1.984.052 1.984s.012-.008-.14.132l-.023.025c-.103.117-.078.485.035.868.102.383.235.486.267.576.324 1.525 1.448 2.826 2.594 2.826s2.21-1.301 2.534-2.826c.032-.09.165-.193.267-.576.113-.383.141-.776.035-.868z"/>
    </g>
</svg>
