<svg xmlns="http://www.w3.org/2000/svg" width="16" height="15" viewBox="0 0 16 15">
    <g fill="#6C6C6C" fill-rule="nonzero">
        <path d="M6.15 8.03c-1.14.138-2.29.234-3.442.289l.97 5.65c.096.564.63 1.019 1.187 1.019h1.468c.556 0 .932-.455.835-1.018l-.675-3.934h.769V8.952h-.955L6.15 8.03zM10.25 6.24c.606-.133 1.08-.253 1.407-.338V2.04a39.101 39.101 0 0 0-1.406-.338v4.54zM0 3.97c0 1.943.426 3.32.426 3.32a46.45 46.45 0 0 0 8.77-.831V1.482a46.45 46.45 0 0 0-8.77-.83S0 2.029 0 3.97zM12.712 1.96V5.98c.782.542 1.745 1.948 3.288 1.948V.012c-1.543 0-2.506 1.406-3.288 1.948z"/>
    </g>
</svg>
