<svg xmlns="http://www.w3.org/2000/svg" width="16" height="16" viewBox="0 0 16 16">
    <g fill="#6C6C6C" fill-rule="nonzero">
        <path d="M8 4.043A3.962 3.962 0 0 0 4.043 8 3.962 3.962 0 0 0 8 11.957 3.961 3.961 0 0 0 11.957 8 3.962 3.962 0 0 0 8 4.043zM8 2.986a.61.61 0 0 0 .61-.61V.61a.61.61 0 0 0-1.22 0v1.764c0 .338.273.611.61.611zM11.977 4.633c.156 0 .313-.06.432-.178l1.248-1.248a.61.61 0 0 0-.864-.864l-1.248 1.248a.61.61 0 0 0 .432 1.042zM15.39 7.39h-1.765a.61.61 0 0 0 0 1.22h1.764a.61.61 0 0 0 0-1.22zM12.41 11.545a.61.61 0 0 0-.865.864l1.248 1.248a.609.609 0 0 0 .864 0 .61.61 0 0 0 0-.864l-1.248-1.248zM8 13.014a.61.61 0 0 0-.61.61v1.765a.61.61 0 0 0 1.22 0v-1.764a.61.61 0 0 0-.61-.611zM3.59 11.545l-1.247 1.248a.61.61 0 0 0 .864.864l1.248-1.248a.61.61 0 0 0-.864-.864zM2.986 8a.61.61 0 0 0-.61-.61H.61a.61.61 0 0 0 0 1.22h1.764A.61.61 0 0 0 2.986 8zM3.59 4.455a.609.609 0 0 0 .865 0 .61.61 0 0 0 0-.864L3.207 2.343a.61.61 0 0 0-.864.864l1.248 1.248z"/>
    </g>
</svg>
