<svg xmlns="http://www.w3.org/2000/svg" width="16" height="10" viewBox="0 0 16 10">
    <g fill="#6C6C6C" fill-rule="nonzero">
        <path d="M16 4.557c-1.173-1.246-3.11-3.076-4.65-3.666a1.253 1.253 0 0 0-.541-.09A11.028 11.028 0 0 0 8.73.012.412.412 0 0 0 8.633 0H7.91c-.246 0-.445.217-.445.484s.199.484.445.484h.67c.147.04.637.18 1.273.45-.476.656-.653 1.6-.653 1.6H6.033c-.768 0-1.39.677-1.39 1.512H.23S.08 4.838 0 5.183c.791.162 3.1.596 5.878.757 2.961.17 7.04.055 10.122-1.383zm-2.82-1.851S15.18 4 14.124 4c-1.204 0-.946-1.295-.946-1.295z"/>
        <path d="M15.934 5c-1.312.48-2.904.813-4.745.99a35.707 35.707 0 0 1-3.399.152c-.664 0-1.35-.016-2.053-.047A55.435 55.435 0 0 1 0 5.54a.35.35 0 0 0 .1.202c.582.565 1.827.985 3.373 1.259a2.43 2.43 0 0 0 .458-.123c.153-.058.275-.141.404-.23l.087-.058a.32.32 0 0 1 .317-.016l.11.058c.191.1.373.196.6.25.202.05.43.076.642.076.117 0 .228-.008.328-.024h.003c.211-.032.36-.068.484-.117.156-.062.28-.134.37-.214l.35-.32a.303.303 0 0 1 .202-.074h.002c.076 0 .149.026.2.072l.06.053.03.027.104.095c.125.116.244.226.405.302l.002.001a2.211 2.211 0 0 0 .92.192c.327-.003.614-.048.855-.134.143-.051.27-.122.404-.196l.126-.07a.317.317 0 0 1 .322.014l.1.067c.078.054.152.104.231.15a2.034 2.034 0 0 0 .61.204c2.454-.499 4.164-1.362 3.735-1.985zM13.949 7.584c-.138-.067-.244-.144-.354-.22-.155.079-.303.157-.493.219-.183.06-.394.101-.612.123a3.596 3.596 0 0 1-.962-.034 2.464 2.464 0 0 1-.623-.198c-.124-.063-.232-.135-.345-.203-.178.086-.35.183-.56.251a3.168 3.168 0 0 1-.966.136c-.37 0-.75-.081-1.019-.198-.245-.104-.397-.257-.562-.39L7.365 7l-.344.283a1.486 1.486 0 0 1-.446.236 2.73 2.73 0 0 1-.543.12c-.119.017-.245.025-.373.025-.245 0-.494-.029-.706-.075-.304-.067-.527-.186-.762-.295-.165.099-.32.205-.537.28a3.157 3.157 0 0 1-1.135.16 3.975 3.975 0 0 1-.605-.07 2.871 2.871 0 0 1-.472-.144c-.024-.01-.113-.042-.113-.042s-.14.076-.212.107a2.964 2.964 0 0 1-.691.207c-.139.025-.28.039-.426.05v.005l.14.001c.136 0 .269-.005.405-.017a3.181 3.181 0 0 0 .734-.157l.047-.017.114.05c.123.05.254.093.397.132a4.107 4.107 0 0 0 1.03.12c.38 0 .773-.061 1.09-.153a2.816 2.816 0 0 0 .237-.08c.01-.005.014-.007.017-.007l.014.006.062.025c.073.029.15.055.231.08.237.07.497.118.77.144a4.624 4.624 0 0 0 1.042-.021c.393-.058.762-.155 1.037-.301C7.773 7.869 8.41 8 9.034 8c.141 0 .282-.007.42-.02.29-.03.561-.08.81-.156a2.687 2.687 0 0 0 .276-.101 3.061 3.061 0 0 0 .286.097c.34.097.731.148 1.126.148.135 0 .27-.006.405-.018.486-.045.93-.17 1.236-.354.22.102.493.174.786.217a3.66 3.66 0 0 0 .68.034v-.005a35.508 35.508 0 0 0-.056-.004c-.396-.036-.77-.116-1.054-.254zM14.949 8.984c-.138-.067-.244-.144-.354-.22-.155.079-.303.157-.493.219-.183.06-.394.101-.612.123a3.596 3.596 0 0 1-.962-.034 2.464 2.464 0 0 1-.623-.198c-.124-.063-.232-.135-.345-.203-.178.086-.35.183-.56.251a3.168 3.168 0 0 1-.966.136c-.37 0-.75-.081-1.019-.198-.245-.104-.397-.257-.562-.39l-.088-.07-.344.283a1.486 1.486 0 0 1-.446.236 2.73 2.73 0 0 1-.543.12c-.119.017-.245.025-.373.025-.245 0-.494-.029-.706-.075-.304-.067-.527-.186-.762-.295-.165.099-.32.205-.537.28a3.157 3.157 0 0 1-1.135.16 3.975 3.975 0 0 1-.605-.07 2.871 2.871 0 0 1-.472-.144c-.024-.01-.113-.042-.113-.042s-.14.076-.212.107a2.964 2.964 0 0 1-.691.207c-.139.025-.28.039-.426.05v.005l.14.001c.136 0 .269-.005.405-.017a3.181 3.181 0 0 0 .78-.174l.115.05c.123.05.254.093.397.132a4.107 4.107 0 0 0 1.03.12c.38 0 .773-.061 1.09-.153a2.816 2.816 0 0 0 .237-.08c.01-.005.014-.007.017-.007l.014.006.062.025c.073.029.15.055.231.08.237.07.497.118.77.144a4.624 4.624 0 0 0 1.042-.021c.393-.058.762-.155 1.037-.301.406.217 1.043.348 1.667.348.141 0 .282-.007.42-.02.29-.03.561-.08.81-.156a2.687 2.687 0 0 0 .276-.101 3.061 3.061 0 0 0 .286.097c.34.097.731.148 1.126.148.135 0 .27-.006.405-.018.486-.045.93-.17 1.236-.354.22.102.493.174.786.217a3.66 3.66 0 0 0 .68.034v-.005a35.508 35.508 0 0 0-.056-.004c-.396-.036-.77-.116-1.054-.254z"/>
    </g>
</svg>
