<svg xmlns="http://www.w3.org/2000/svg" width="16" height="16" viewBox="0 0 16 16">
    <g fill="#6C6C6C" fill-rule="nonzero">
        <path d="M6 11v.018C6 12.111 6.897 13 8 13s2-.89 2-1.982V11H6zM6 10h4v1H6z"/>
        <path d="M14.085 7.56h-.818c-.947-.627-2.093-1.8-2.443-3.903v-.833A2.827 2.827 0 0 0 8 0a2.827 2.827 0 0 0-2.824 2.824v.833C4.826 5.76 3.68 6.933 2.733 7.56h-.818A1.917 1.917 0 0 0 0 9.475v2.518h.95V9.475c0-.532.433-.964.965-.964h.483V16h11.204V8.51h.483c.532 0 .964.433.964.965v2.518H16V9.475a1.917 1.917 0 0 0-1.915-1.915zM6.127 2.824c0-1.033.84-1.873 1.873-1.873s1.873.84 1.873 1.873v.4H6.127v-.4zm5.165 8.514A3.296 3.296 0 0 1 8 14.63a3.296 3.296 0 0 1-3.292-3.292V8.782h6.584v2.556z"/>
    </g>
</svg>
