<svg xmlns="http://www.w3.org/2000/svg" width="16" height="16" viewBox="0 0 16 16">
    <g fill="#6C6C6C" fill-rule="nonzero">
        <path d="M15.908 15.151l-1.745-3.561c-.186.43-.51.78-.932.996l-5.732 2.97-.002.001a2.019 2.019 0 0 1-2.728-.878 2.022 2.022 0 0 1-.224-.976c0-.08.004-.16.013-.24l-1.795-.931a2.013 2.013 0 0 1-.931-.995L.06 15.15a.568.568 0 0 0 .028.56.565.565 0 0 0 .489.272h14.813c.203 0 .382-.1.49-.272a.567.567 0 0 0 .027-.56zM7.5 2.93h.956c.555-.082.982-.561.982-1.14v-.62c0-.637-.515-1.153-1.15-1.153h-.62c-.635 0-1.15.516-1.15 1.152v.62c0 .58.426 1.059.982 1.14z"/>
        <path d="M3.801 9.541h-.134a1.186 1.186 0 0 0-.517 2.239l1.708.887c.19-.304.46-.552.786-.721l1.399-.725L3.8 9.541zM6.572 14.882c.182 0 .367-.042.54-.131l5.732-2.97c.4-.206.632-.607.642-1.027a1.182 1.182 0 0 0-1.723-1.027l-5.732 2.97c-.397.205-.63.603-.642 1.02a1.18 1.18 0 0 0 1.183 1.165zM1.847 8.346l2.777-.864c.12-.038.226-.1.314-.179.018-.013.613-.535.613-.535V9.55l2.427 1.195 2.427-1.195V6.756s.608.534.625.547a.856.856 0 0 0 .315.179l2.777.863a.863.863 0 0 0 .512-1.648l-2.608-.81-2.092-1.843a.857.857 0 0 0-.624-.214H6.647a.857.857 0 0 0-.612.214L3.943 5.887l-2.608.811a.863.863 0 0 0 .512 1.648z"/>
    </g>
</svg>
