<svg xmlns="http://www.w3.org/2000/svg" width="16" height="16" viewBox="0 0 16 16">
    <path fill="#6C6C6C" fill-rule="nonzero" d="M14.784.27a.916.916 0 0 0-.666-.27.885.885 0 0 0-.275.038L5.686 2.5a.967.967 0 0 0-.48.341.878.878 0 0 0-.186.544v9.298a4.625 4.625 0 0 0-1.883-.375c-.294 0-.61.034-.946.1-.336.068-.675.17-1.015.309-.34.137-.62.331-.843.581-.222.25-.333.536-.333.856 0 .32.111.606.333.856.223.25.503.444.843.582.34.137.679.24 1.015.307.337.067.652.101.946.101.294 0 .61-.034.946-.1.337-.068.675-.17 1.015-.308.34-.138.62-.332.843-.582.223-.25.334-.535.334-.856V7.337l7.529-2.28v5.164a4.628 4.628 0 0 0-1.882-.375c-.295 0-.61.034-.947.101-.336.067-.674.17-1.014.308-.34.138-.621.332-.844.582-.222.25-.333.535-.333.855 0 .32.111.606.333.856.223.25.504.444.844.582.34.138.678.24 1.014.308.337.067.652.1.947.1.294 0 .609-.033.946-.1a5.65 5.65 0 0 0 1.014-.308c.34-.138.621-.332.843-.582.223-.25.334-.535.334-.856V.922a.88.88 0 0 0-.275-.653z"/>
</svg>
