<svg xmlns="http://www.w3.org/2000/svg" width="16" height="16" viewBox="0 0 16 16">
    <g fill="#6C6C6C" fill-rule="nonzero">
        <path d="M14.222 0H1.778C.8 0 0 .8 0 1.778v12.444C0 15.2.8 16 1.778 16h12.444C15.2 16 16 15.2 16 14.222V1.778C16 .8 15.2 0 14.222 0zM6.044 9.244v3.2h-1.6V3.556h3.823c1.333 0 1.955.266 2.489.8.622.533.8 1.244.8 2.044 0 .889-.267 1.6-.8 2.044-.534.445-1.156.712-2.49.712H6.045v.088z"/>
        <path d="M6.044 8V4.8H8.09c.622 0 1.067.178 1.333.533.267.356.445.623.445 1.067 0 .533-.178.8-.445 1.156C9.156 7.822 8.8 8 8.178 8H6.044z"/>
    </g>
</svg>
