<svg xmlns="http://www.w3.org/2000/svg" width="16" height="16" viewBox="0 0 16 16">
    <g fill="#6C6C6C" fill-rule="nonzero">
        <path d="M13.865 14.906c-.336 0-.48-.1-.7-.25-.278-.193-.625-.432-1.278-.432s-1 .24-1.28.432c-.226.156-.362.25-.699.25-.336 0-.473-.094-.699-.25-.279-.193-.626-.432-1.279-.432-.653 0-1 .24-1.279.432-.226.156-.363.25-.7.25-.336 0-.472-.094-.699-.25-.279-.193-.626-.432-1.28-.432-.652 0-1 .24-1.28.432-.226.156-.364.25-.7.25-.337 0-.478-.094-.704-.25-.28-.193-.627-.432-1.288-.432V15.3c.348 0 .482.095.708.25.279.193.635.432 1.288.432.652 0 1-.24 1.279-.431.226-.156.363-.25.699-.25.336 0 .473.094.7.25.278.192.625.431 1.278.431s1-.24 1.28-.431c.225-.156.362-.25.698-.25.337 0 .473.094.7.25.279.192.626.431 1.278.431.653 0 1-.24 1.28-.431.226-.156.362-.25.699-.25.336 0 .473.094.7.25.278.192.625.431 1.278.431s.991-.24 1.27-.431c.219-.151.378-.25.691-.25v-1.077c-.626 0-.991.24-1.27.432-.219.15-.355.25-.69.25zM16 6.495V3.279C16 1.481 14.596.018 12.852.018c-.9 0-1.71.39-2.284 1.016A3.128 3.128 0 0 0 8.276.018c-1.744 0-3.163 1.463-3.163 3.261v8.736a1.939 1.939 0 0 0-1.14-.338c-.653 0-1.001.24-1.28.432-.227.156-.365.25-.702.25-.336 0-.477-.094-.703-.25-.28-.193-.627-.432-1.288-.432v1.076c.348 0 .482.094.708.25.279.193.635.432 1.288.432.652 0 1-.24 1.279-.432.226-.156.363-.25.699-.25.336 0 .473.095.7.25.278.193.625.432 1.278.432s1-.24 1.28-.432c.225-.156.362-.25.698-.25.337 0 .473.095.7.25.279.193.626.432 1.278.432.653 0 1-.24 1.28-.432.226-.156.362-.25.699-.25.336 0 .473.095.7.25.278.193.625.432 1.278.432s.991-.24 1.27-.431c.219-.151.378-.25.691-.25v-1.077c-.626 0-.991.24-1.27.432-.219.15-.355.25-.69.25-.337 0-.482-.1-.7-.25-.28-.193-.626-.432-1.28-.432-.548 0-.88.17-1.138.337V3.28c0-1.205.936-2.185 2.104-2.185 1.169 0 2.105.98 2.105 2.185v3.216H16zm-6.296 5.849c-.2-.032-.32-.115-.495-.235-.279-.193-.626-.432-1.279-.432-.653 0-1 .24-1.279.432-.174.12-.295.203-.494.235v-2.226h3.547v2.226zm0-3.302H6.157V7.069h3.547v1.973zm0-5.763v2.713H6.157V3.28c0-1.205.95-2.185 2.119-2.185.668 0 1.296.329 1.694.873-.17.402-.266.846-.266 1.312z"/>
    </g>
</svg>
