<svg xmlns="http://www.w3.org/2000/svg" width="16" height="16" viewBox="0 0 16 16">
    <g fill="#6C6C6C" fill-rule="nonzero">
        <path d="M5.067 9.988a2.395 2.395 0 0 1-.747-.06L.223 14.043a.518.518 0 0 0 0 .731l1.06 1.065a.513.513 0 0 0 .728 0l4.923-4.943-.912-.988-.955.081zM15.848 3.398a.49.49 0 0 0-.696 0l-2.654 2.666a.641.641 0 0 1-.91 0 .648.648 0 0 1 0-.912L14.23 2.5c.2-.2.2-.525 0-.727-.2-.2-.524-.2-.724 0l-2.64 2.652a.64.64 0 0 1-.91 0 .647.647 0 0 1 0-.912L12.612.848a.496.496 0 0 0 0-.7.491.491 0 0 0-.697 0l-2.986 3a2.78 2.78 0 0 0-.713 2.655l2.002 2.01a2.753 2.753 0 0 0 2.644-.716l2.987-2.999a.496.496 0 0 0 0-.7z"/>
        <path d="M1.342.42a.54.54 0 0 0-.87.147 4.753 4.753 0 0 0 .91 5.414l2.54 2.55a1.327 1.327 0 0 0 1.054.387l1.475-.126 6.432 6.967c.1.108.24.171.387.174h.01a.544.544 0 0 0 .384-.16l1.101-1.106a.544.544 0 0 0 0-.769L1.343.42z"/>
    </g>
</svg>
