<svg xmlns="http://www.w3.org/2000/svg" width="30" height="30" viewBox="0 0 15 16">
    <g fill="#3ea042" fill-rule="nonzero">
        <path d="M14.093.244c-.143.148-.3.304-.49.39a.507.507 0 0 1-.347.033 1.092 1.092 0 0 1-.302-.14 1.846 1.846 0 0 0-.45-.222 1.102 1.102 0 0 0-.62-.01.998.998 0 0 0-.487.318.903.903 0 0 0-.22.473c.211-.132.454-.256.705-.27a.91.91 0 0 1 .44.095c.1.047.19.108.284.166.305.187.7.262 1.027.087a.878.878 0 0 0 .375-.413.923.923 0 0 0 .085-.507zM12.197 5.026V1.483h-1.72v1.89L6.954 0 .03 6.642l1.046 1.005 5.88-5.65 5.878 5.65 1.046-1.005z"/>
        <path d="M11.73 12.915v-5.32l-4.776-4.59-4.776 4.59v4.704c-.3.217-.573.472-.813.758-.49.583-.917 1.355-.986 2.127.946-.592 2.037-1.151 3.169-1.214.688-.038 1.356.135 1.976.427.448.212.86.487 1.281.746 1.37.84 3.145 1.178 4.616.39.753-.403 1.337-1.081 1.69-1.855.312-.686.502-1.528.381-2.283-.529.55-1.101 1.119-1.762 1.52zm-5.303-.897H4.572v-1.862h1.855v1.862zm0-2.92H4.572V7.236h1.855v1.862zm2.91 2.92H7.48v-1.862h1.855v1.862zm0-2.92H7.48V7.236h1.855v1.862z"/>
    </g>
</svg>
