<svg xmlns="http://www.w3.org/2000/svg" width="15" height="16" viewBox="0 0 15 16">
    <path fill="#6C6C6C" fill-rule="nonzero" d="M14.325 7.59h-.18a4.027 4.027 0 0 0-.74-1.733V.667A.67.67 0 0 0 12.732 0a.67.67 0 0 0-.674.667V4.69a4.125 4.125 0 0 0-1.964-.492H4.907c-2.035 0-3.73 1.47-4.052 3.392h-.18A.67.67 0 0 0 0 8.257a.67.67 0 0 0 .675.666h.18c.321 1.926 2.012 3.393 4.052 3.393 1.797 0 1.292.224 2.593-1.3 1.303 1.526.833 1.3 2.593 1.3.712 0 1.38-.179 1.964-.493v1.265a.671.671 0 0 1-.675.666H9.376a1.389 1.389 0 0 0-1.308-.912H6.932c-.766 0-1.388.615-1.388 1.371v.416c0 .756.623 1.371 1.388 1.371h1.136c.603 0 1.117-.381 1.308-.913h2.006c1.116 0 2.024-.897 2.024-2v-2.43a4.017 4.017 0 0 0 .74-1.734h.18A.67.67 0 0 0 15 8.257a.67.67 0 0 0-.675-.667z"/>
</svg>
