<svg xmlns="http://www.w3.org/2000/svg" width="16" height="11" viewBox="0 0 16 11">
    <g fill="#6C6C6C" fill-rule="nonzero">
        <path d="M.726 4.856a3.042 3.042 0 0 1 1.263-.274h12.022c.45 0 .878.098 1.263.274l.34-2.002a2.415 2.415 0 0 0-.55-1.978 2.468 2.468 0 0 0-1.88-.862H2.816c-.726 0-1.41.314-1.88.862a2.414 2.414 0 0 0-.548 1.978l.34 2.002zM14.01 5.615H1.99C.891 5.615 0 6.498 0 7.584c0 .951.686 1.747 1.594 1.93v1.42h1.043V9.553h10.726v1.38h1.043v-1.42A1.977 1.977 0 0 0 16 7.583a1.981 1.981 0 0 0-1.99-1.968z"/>
    </g>
</svg>
