<svg xmlns="http://www.w3.org/2000/svg" width="16" height="16" viewBox="0 0 16 16">
    <g fill="#6C6C6C" fill-rule="nonzero">
        <path d="M.72 4.551v.246c.126-.2.265-.396.414-.588l-.415.342zM5.636 3.986l-.104.11.14.117.142-.117zM1.483 3.811l-.012-.088-.007-.055a7.775 7.775 0 0 0-.462.541l.155-.128.326-.27zM3.84 2.016v-.181h-.3l-.016.087h-.183v.251h.414zM15.654 6.07l-.037.043.082.154-.045-.197zM5.115 4.394l.216-.04.173-.112v-.23h-.389v.382zM15.287 4.783a8.847 8.847 0 0 0-.271-.479l-.073.07v.43l.224-.026.12.005zM3.834 2.515s.016-.253 0-.253-.2.043-.2.043l-.293.116.079.13.414-.036zM13.937 3.151l.155-.23a7.733 7.733 0 0 0-.39-.443v.384l-.34.171.034.113.541.005zM4.568 3.159l-.237-.062-.263.137.162.363.257-.089z"/>
        <path d="M5.247 3.76v.274l.238-.057zM4.785 3.692l-.226.137-.044.166.177.072h.471v-.238h-.068v-.137z"/>
        <path d="M4.485 4.432l.147.08.353-.5H4.71l-.192.21zM5.444 4.183v.209l.1.145h.369v-.224l-.44-.13z"/>
        <path d="M5.173 4.448l-.162.015-.054.252h.345l.155-.166v-.224l-.25.037z"/>
        <path d="M14.91 5.042l-.206-.226-.04-.363-.21.115-.114.445-.304-.324-.013-.307-.294-.253-.108-.108h-.342l.109.305.41.229.07.075-.088.045.004.24-.2.084-.17-.037-.107-.152.277.016.075-.102-.615-.415-.047-.177-.25.226-.254-.052-.385.502-.077.196-.247.023-.365.002-.218-.102-.064-.434.078-.206.372-.081.404.081.05-.224-.172-.04.06-.35.406-.064.286-.403.293-.05.266.04h.098l-.053-.378-.323.13-.114-.282-.187-.027-.036-.194.153-.167.364-.142.093-.167A7.864 7.864 0 0 0 9.467.144L9.372.127C9.227.101 9.08.083 8.932.065A7.902 7.902 0 0 0 7.972 0 7.84 7.84 0 0 0 3.34 1.51h.067l.33-.004.178.098.333.072.026.132.531.02-.072-.17-.472-.014.111-.105-.038-.124h-.426l.464-.348h.446l.21.289.347.02.21-.204.157.079-.289.281-.38.007c.02 0 .034.275.034.275l.484-.013.052-.13.334-.021.04-.196-.197-.033.066-.177.15-.046.524.026-.289.262.047.203.3.046L6.6 1.37l.289-.151.51-.06.74.329v.282l.236.058-.118.223h-.333l-.1.255-.764-.18.6-.32-.228-.194-.517.066-.046.047-.002-.001-.007.01-.149.154-.246.021.02.123.086.036-.004.04-.2.029-.015.116-.191.01-.035-.23-.344.104-.703.411.079.29.196.128.393.054v.447l.181-.03.168-.348.418-.133V2.42l.232-.175.562.133-.04.354h.15l.413-.203.02.464.302.184-.013.275-.288.098.02.092.346.158-.006.19-.101.008-.001-.006-.439-.134-.018-.141.128-.088V3.5l-.138-.034-.034.118-.242.037-.024-.008v.012l-.083.012-.068-.137-.08-.034h-.171l-.078.064v.142l.147.05.146.02-.033.014-.133.147-.058-.074-.128-.034-.35.329.047.037-.516.285-.485.505-.033.224-.486.32-.24.242.026.485-.334-.156.003-.284h-.93l-.481.245-.209.385-.083.305.135.297.38.046.602-.403.053.2-.184.347.459.078.046.708.058.01.005.001.566.096.4-.461.484.098.17.237.465-.028.013-.137.256.124.288.452.498.007.184.32.025.393.55.21.695.007.203.333.308.1-.059.275-.338.428-.098.949-.305.24-.451-.013-.151.262.112.491-.491.63-.158.288-.468.225-.308.047-.013.13.216.063-.027.14-.193.187.118.148.233.007-.014.18-.062.177-.019.144.345.29-.047.15-.469-.008-.467-.408-.363-.639.051-.616-.275-.367.11-.622-.162-.046v-1.35s-.46-.347-.485-.347c-.027 0-.243-.058-.243-.058l-.045-.256-.597-.746.06-.269.02-.439.412-.288-.059-.492-.603-.045-.472-.537-.333-.092-.217-.04.026-.196-.275-.04v.112l-.688-.17-.277-.424.096-.173-.114-.002-.033-.11.08-.041-.352-.514-.075-.466h-.177l.06.452.3.465-.032.184-.256-.04-.314-.535v-.624l-.328-.157v-.45a7.8 7.8 0 0 0-.434 1.355l.018-.003.108-.022.064.307.135.219.09.102.163.064-.154.183-.297.029H.187l.025-.266.186-.038L.382 6.6l-.154-.098-.013-.008c-.08.45-.124.913-.124 1.386v.042c.023 4.327 3.55 7.84 7.881 7.84a7.87 7.87 0 0 0 6.113-2.913h-.26v-.524l-.3-.405v-.63l-.23-.23-.02-.262.29-.557-.552-.975.065-.662-.497-.051-.184-.184h-.334l-.17.157h-.589l-.02.052h-.328l-.753-.858.006-.668.125-.046.046-.256h-.177l-.072-.268.87-.629v-.445l.428-.237.172.017h.351l.275-.147.884-.07v.453l.698.177.138.098h.128v-.246l.403-.039.383.285h.628l.044-.04a7.76 7.76 0 0 0-.213-.625l-.41.007z"/>
    </g>
</svg>
