<svg xmlns="http://www.w3.org/2000/svg" width="13" height="16" viewBox="0 0 13 16">
    <g fill="#6C6C6C" fill-rule="nonzero">
        <path d="M9.245 0C8.11 0 7.13 2.98 6.68 5.929l-.823.823-.07-.53a1.36 1.36 0 0 0-1.356-1.307H1.378A1.36 1.36 0 0 0 .021 6.263L0 10.47a.573.573 0 0 0 1.147.006l.021-4.207a.114.114 0 0 1 .228 0v3.04h3.038V6.27a.104.104 0 0 1 .208 0c0 .052-.013-.063.23 1.786a.573.573 0 0 0 .975.33l.63-.63c-.04.542-.06 1.09-.06 1.634 0 4.27 1.266 6.611 2.828 6.611 1.562 0 2.828-2.924 2.828-7.193C12.073 4.537 10.807 0 9.245 0z"/>
        <path d="M1.455 15.315c0 .378.293.685.654.685.362 0 .655-.307.655-.685V11.49h-1.31v3.824zM3.055 15.315c0 .378.293.685.654.685.362 0 .655-.307.655-.685V11.49h-1.31v3.824z"/>
        <circle cx="2.909" cy="3.345" r="1.164"/>
        <path d="M4.55 9.455H1.413l-.104 1.672a.208.208 0 0 0 .215.218h1.13a.21.21 0 0 0 .207-.16l.12-.533.084.52a.21.21 0 0 0 .209.173h1.165a.208.208 0 0 0 .215-.218L4.55 9.455z"/>
    </g>
</svg>
