<svg xmlns="http://www.w3.org/2000/svg" width="16" height="12" viewBox="0 0 16 12">
    <g fill="#6C6C6C" fill-rule="nonzero">
        <path d="M14.692.01H1.287C.577.01 0 .584 0 1.29v9.037c0 .706.578 1.28 1.287 1.28h13.405c.71 0 1.288-.574 1.288-1.28V1.29c0-.706-.578-1.28-1.288-1.28zm-3.327 11.108a.334.334 0 0 1-.336-.333c0-.185.15-.334.336-.334a.335.335 0 0 1 0 .667zm2.145 0a.335.335 0 0 1-.335-.333.335.335 0 0 1 .67 0c0 .184-.15.333-.335.333zm.86-1.112H1.61V1.61h12.76v8.396z"/>
        <path d="M4.24 4.342h.825v3.294c0 .296.242.537.54.537.298 0 .54-.24.54-.537V4.342h.846a.45.45 0 0 0 .452-.45.45.45 0 0 0-.452-.448H4.24a.45.45 0 0 0-.451.449.45.45 0 0 0 .45.449zM9.216 7.805c.07.219.276.368.508.368h.483c.23 0 .433-.145.505-.361l1.243-3.67a.533.533 0 0 0-.505-.699h-.013a.54.54 0 0 0-.512.368c-.257.763-.831 2.486-.924 2.925l-.89-2.9a.558.558 0 1 0-1.066.333l1.171 3.636z"/>
    </g>
</svg>
