<svg xmlns="http://www.w3.org/2000/svg" width="13" height="16" viewBox="0 0 13 16">
    <g fill="#6C6C6C" fill-rule="evenodd">
        <path d="M6.59 9.374l-3.907-.721v2.378h3.908V9.374zM0 11.809v-.75h1.897v-1.2c-.002-.377-.012-.753-.005-1.13.003-.147-.034-.223-.186-.279-.53-.193-.786-.567-.793-1.13-.005-.397 0-.793.002-1.19 0-.028.01-.057.022-.12.08.006.165.003.246.018 2.365.44 4.73.883 7.094 1.32.824.151 1.567.5 2.253.957.655.436 1.273.928 1.907 1.395-.27.116-.528.158-.67.31-.138.147-.185.402-.22.618-.078.482-.446.847-.937.883a1.006 1.006 0 0 1-1.048-.745 1.56 1.56 0 0 1-.041-.233c-.07-.681-.61-.943-1.183-.571-.032.02-.064.043-.052.035-.287-.185-.55-.355-.812-.526l-.08.074v1.506h.724v.758H0zM.912 2.983l7.63 1.42c0 .55.036 1.093-.012 1.628-.036.407-.456.623-.91.539l-4.434-.822-1.226-.226C1.272 5.394.915 4.966.912 4.264V2.983M.96 0c.672.122 1.352.244 2.031.37 1.772.33 3.543.665 5.316.988.193.035.268.102.26.302-.014.356-.002.713-.005 1.07-.004.65-.368.95-1.026.831-1.082-.196-2.162-.4-3.242-.602L1.9 2.509C1.281 2.39.915 1.952.912 1.322.91.906.917.49.922.074.921.057.937.04.96 0M12.474 13.846c.088.973-.356 1.703-1.174 1.989-1.053.367-2.018-.016-2.72-1.1-.586.77-1.342 1.217-2.322 1.22-.972.003-1.732-.417-2.334-1.205-.056.085-.104.154-.15.225-.648 1.016-2.096 1.315-3.095.637-.5-.34-.762-.99-.634-1.666.292 1.03 1.034 1.311 1.947 1.297.936-.014 1.578-.493 1.983-1.355.601.735 1.347 1.135 2.275 1.133.932-.003 1.676-.409 2.268-1.148.476.983 1.227 1.465 2.317 1.36.796-.078 1.238-.443 1.64-1.387"/>
        <path d="M8.523 12.3c.437.933 1.127 1.415 2.13 1.378.904-.034 1.525-.472 1.797-1.392.17.794-.282 1.624-1.02 1.93-1.086.451-2.098.084-2.841-1.03-1.234 1.64-3.485 1.57-4.622.09-.343.295-.652.658-1.042.876-.707.394-1.457.323-2.16-.06-.559-.302-.85-.994-.72-1.712.296 1.055 1.062 1.318 1.98 1.297.91-.021 1.539-.496 1.946-1.35.601.714 1.341 1.13 2.277 1.125.935-.004 1.675-.41 2.275-1.152"/>
        <path d="M10.518 12.685c-1.172-.007-2.165-.98-2.164-2.12 0-.316.165-.508.445-.519.26-.01.436.166.467.467.08.755.566 1.247 1.247 1.259.707.013 1.214-.474 1.3-1.266.025-.222.106-.383.326-.44.212-.054.405.004.51.202a.75.75 0 0 1 .07.367c-.047 1.142-1.034 2.058-2.2 2.05"/>
    </g>
</svg>
