<svg xmlns="http://www.w3.org/2000/svg" width="15" height="16" viewBox="0 0 15 16">
    <path fill="#6C6C6C" fill-rule="nonzero" d="M14.317 6.523l.067.078a.222.222 0 0 0 .375-.221 5.695 5.695 0 0 0-1.283-2.122 5.7 5.7 0 0 0-4.157-1.776c-.648 0-1.283.107-1.884.314a5.817 5.817 0 0 1 3.458-1.131c.572 0 1.14.083 1.687.247a.223.223 0 0 0 .196-.393A7.875 7.875 0 0 0 8.105 0C6.059 0 4.117.78 2.637 2.194a7.873 7.873 0 0 0-2.446 5.55A7.876 7.876 0 0 0 2.386 13.4a7.856 7.856 0 0 0 5.73 2.45c2.049 0 3.994-.781 5.476-2.198.05-.046.096-.097.14-.145l.066-.07a.222.222 0 0 0 .01-.296.223.223 0 0 0-.29-.046 4.247 4.247 0 0 1-1.565.598c1.806-.896 3.022-2.121 2.715-2.744-.272-.55-1.646-.442-3.213.208l.113-.648a.291.291 0 0 0-.119-.288l-.978-.695 1.703-.39a.292.292 0 1 0-.13-.57l-2.341.536c-.01.002-.015.01-.024.011a.258.258 0 0 0-.083.043c-.006.005-.013.005-.018.01-1.426 1.222-1.475 1.367-1.501 1.446a.292.292 0 0 0 .278.385c.108 0 .21-.062.26-.16.097-.125.646-.623 1.171-1.078l.784.556-1.199 1.153a.29.29 0 0 0-.088.236l.053.64c-.256.192-.48.384-.668.571a4.369 4.369 0 0 1-.54-.472 4.287 4.287 0 0 1 .136-6.053 4.262 4.262 0 0 1 2.957-1.186 4.23 4.23 0 0 1 3.096 1.32zm-3.39 4.257l-.116.667c-.328.162-.636.336-.918.514l-.014-.172 1.049-1.009zm-1.84-3.444a.78.78 0 1 1 0 1.56.78.78 0 0 1 0-1.56z"/>
</svg>
