<svg xmlns="http://www.w3.org/2000/svg" width="16" height="16" viewBox="0 0 16 16">
    <g fill="#6C6C6C" fill-rule="nonzero">
        <path d="M0 0v4.22h15.059V0H0zm4.747 2.62H1.47V1.565h3.277V2.62zm6.72.017h-1.452V1.582h1.451v1.055zm2.177 0h-1.452V1.582h1.452v1.055zM7.548 13.52c1.65 0 2.993-1.3 2.993-2.9 0-1.6-1.343-2.901-2.993-2.901-1.651 0-2.994 1.301-2.994 2.9 0 1.6 1.343 2.902 2.994 2.902z"/>
        <path d="M0 16h15.059V5.275H0V16zm7.548-9.336c2.25 0 4.082 1.774 4.082 3.956 0 2.181-1.831 3.956-4.082 3.956S3.465 12.8 3.465 10.62c0-2.182 1.832-3.956 4.083-3.956z"/>
    </g>
</svg>
