<svg xmlns="http://www.w3.org/2000/svg" width="16" height="16" viewBox="0 0 16 16">
    <path fill="#6C6C6C" fill-rule="nonzero" d="M12.527 6.748c-.145-.101-.175-.171-.175-.184.002-.012.04-.07.181-.14 1.605-.78 2.526-1.741 2.526-2.636 0-.723-.37-1.09-1.102-1.09-.19 0-.41.023-.688.072a.63.63 0 0 1-.107.009c-.287 0-.574-.208-.715-.517C11.82.888 10.464 0 8.993 0 6.89 0 5.179 1.764 5.179 3.933c0 1.01.37 1.97 1.043 2.703.133.144.15.243.141.275-.009.031-.07.076-.186.104-.53.128-1.012.235-1.532.235-.26 0-.503-.027-.741-.082a6.966 6.966 0 0 1-.584-.182c-.536-.181-1.203-.407-1.803-.407-.545 0-.952.19-1.208.565-.532.779-.378 2.347.47 4.793C1.808 14.899 3.72 16 7.832 16c.634 0 1.323-.025 2.105-.077 1.402-.094 2.597-.573 3.456-1.387.906-.859 1.385-2.047 1.385-3.438 0-1.748-.841-3.375-2.25-4.35zM9.407 2.16c.436 0 .79.366.79.816 0 .451-.354.817-.79.817a.804.804 0 0 1-.792-.817c0-.45.354-.816.791-.816zM6.042 13.14c-1.932-.32-3.618-2.273-3.618-3.34 0-.521 2.294-.521 4.25-.521 2.66 0 3.543.864 3.543 1.93 0 1.067-1.974 2.297-4.175 1.932z"/>
</svg>
