<svg xmlns="http://www.w3.org/2000/svg" width="16" height="13" viewBox="0 0 16 13">
    <g fill="#6C6C6C" fill-rule="nonzero">
        <path d="M6.883 10.21a1.676 1.676 0 0 0 0 2.307 1.535 1.535 0 0 0 2.226 0 1.676 1.676 0 0 0 0-2.308 1.535 1.535 0 0 0-2.226 0zM7.996 6.328a4.735 4.735 0 0 0-3.432 1.475.98.98 0 0 0 0 1.35.898.898 0 0 0 1.302 0 2.937 2.937 0 0 1 4.26 0 .9.9 0 0 0 1.302 0 .98.98 0 0 0 0-1.35 4.735 4.735 0 0 0-3.432-1.475z"/>
        <path d="M7.996 3.183c-2.107 0-4.088.85-5.577 2.396a.98.98 0 0 0 0 1.35.898.898 0 0 0 1.302 0c1.142-1.184 2.66-1.836 4.275-1.836 1.614 0 3.133.652 4.274 1.837a.9.9 0 0 0 1.302 0 .98.98 0 0 0 0-1.351c-1.489-1.545-3.469-2.396-5.576-2.396z"/>
        <path d="M15.723 3.35C13.659 1.209 10.915.03 7.996.03 5.077.03 2.333 1.21.27 3.35a.98.98 0 0 0 0 1.35.9.9 0 0 0 1.302 0C3.288 2.92 5.57 1.94 7.996 1.94c2.427 0 4.708.98 6.424 2.76a.898.898 0 0 0 1.302.001.982.982 0 0 0 0-1.351z"/>
    </g>
</svg>
